<?xml version="1.0" encoding="UTF-8"?>
<svg xmlns="http://www.w3.org/2000/svg" viewBox="0 0 1100 1242.1325"><path d="M2 889q5-8 16-1 250 145 544 145 196 0 387-73 5-2 15-6t13-6q15-6 24 6t-6 22q-18 13-46 30-86 51-192 79t-207 28q-156 0-295-54T6 905q-6-5-6-10 0-3 2-6zm301-285q0-69 34-118t93-74q54-23 133-33 27-3 88-8v-17q0-64-14-86-21-30-66-30h-8q-33 3-57 21t-31 50q-4 20-20 23l-115-14q-17-4-17-18 0-3 1-7 17-89 84-132t155-48h25q114 0 178 59 10 10 19 21t13 21 9 26 6 23 3 28 1 26v242q0 26 8 47t14 31 23 31q6 9 6 16 0 8-8 14-83 72-90 78-12 9-29 2-14-12-24-23t-15-16-15-20-14-19q-56 61-110 76-34 10-84 10-77 0-126-48t-50-134zm172-20q0 39 20 62t52 24q3 0 9-1t7-1q42-11 65-54 11-19 17-42t6-36 0-46v-25q-58 0-88 8-88 25-88 111zm420 322q2-4 6-8 25-17 48-23 38-10 74-11 10-1 19 1 45 4 54 15 4 6 4 18v7q0 35-19 83t-53 76q-5 4-9 4-2 0-4-1-6-3-3-11 37-87 37-121 0-11-4-16-10-12-56-12-17 0-40 2-25 3-46 6-6 0-8-2t-1-4q0-1 1-3z" fill="#ffff66"/></svg>
