<?xml version="1.0" encoding="UTF-8"?>
<svg xmlns="http://www.w3.org/2000/svg" viewBox="0 0 860 1242.1325"><path d="M1 612q-1 18-1 36 0 68 20 144 26 97 83 184 89 136 172 137 30 0 78-21t95-21h4q46 0 91 20 47 22 76 22 49-1 91-41t85-104q31-48 65-121-50-19-85-57t-48-85q-10-35-9-70v-24q4-48 34-92t78-70q-38-48-89-75t-103-27q-48 0-105 21t-86 22q-30 0-90-22t-102-21q-58 0-114 33t-96 93Q8 529 1 612zm415-258q-3-15-3-30 0-65 53-129 27-33 70-56t82-26q2 15 2 30 0 69-50 132-28 36-70 58-41 22-80 21h-4z" fill="#ffff66"/></svg>
