<?xml version="1.0" encoding="UTF-8"?>
<svg xmlns="http://www.w3.org/2000/svg" viewBox="0 0 1000 1242.1325"><path d="M604 624c0-54-45-98-99-98s-98 44-98 98 44 98 98 98 99-44 99-98zm146-510H250C113 114 1 225 1 362v69h367c39-27 86-43 137-43s99 16 137 43h358v-69c0-137-112-248-250-248zm101 236c0 15-12 28-28 28h-85c-16 0-28-13-28-28v-85c0-16 12-28 28-28h85c16 0 28 12 28 28v85zM742 624c0 130-106 236-237 236S268 754 268 624c0-36 8-70 23-101H1v341c0 137 112 248 249 248h500c138 0 250-111 250-248V523H720c14 31 22 65 22 101z" fill="#ffff66"/></svg>
