<?xml version="1.0" encoding="UTF-8"?>
<svg xmlns="http://www.w3.org/2000/svg" viewBox="0 0 1000 1242.1325"><path d="M833 240q-92-61-200-61-87 0-164 41T335 331q-41 52-66 122t-27 148v24q2 78 27 148t66 122q57 71 134 111t164 41q108 0 200-61-67 60-153 94t-180 33q-16 0-24-1-98-4-186-45T138 959 37 802 0 613q0-102 40-194t106-160 160-106 194-40h2q93 1 179 34t152 93zm167 373q0 107-43 202T838 981q-58 35-124 35-76 0-142-47 86-31 141-130t56-226q0-127-55-225T573 257q66-46 141-46 67 0 126 36 76 70 118 164t42 202z" fill="#ffff66"/></svg>
