<?xml version="1.0" encoding="UTF-8"?>
<svg xmlns="http://www.w3.org/2000/svg" viewBox="0 0 1000 1242.1325"><path d="M11 601q4-121 64-227t171-177h2v1q-5 5-16 19t-29 43-33 61-25 76-8 84 22 88 60 86q28 28 57 39t51 6 39-13 26-18l9-9q21-29 29-65t4-69-12-59-15-45l-7-16q-6-14-17-28t-24-23-25-16-19-11l-7-3 58-64q21 9 43 29t33 34l11 15q0-27-11-58t-22-49l-11-17 89-102 90 101q-19 26-30 57t-12 51l-2 18q12-21 34-40t38-30l15-9 58 64q-25 8-48 28t-33 36l-11 16q-17 32-27 75t-4 95 32 87q19 25 44 34t47 3 42-15 32-19l12-9q34-29 54-64t27-67 6-68-10-66-21-60-25-52-26-40-19-27l-7-9q-8-7-4-7l6 1q22 16 35 26t34 28 36 32 32 36 31 43 26 49 21 58 13 65 6 76q2 145-60 260t-174 179-255 64q-103 0-196-41T147 961 44 798 11 601z" fill="#ffff66"/></svg>
