<?xml version="1.0" encoding="UTF-8"?>
<svg xmlns="http://www.w3.org/2000/svg" viewBox="0 0 1106 1242.1325"><path d="M0 286v-21l2-2h249l2 2v20q0 8-10 8l-26 1q-33 1-33 20 0 13 7 28 50 122 222 484l6 1 111-221q-13-30-22-49l-76-150-20-40q-26-51-34-61t-33-13q-14-2-14-7v-21l3-2h197l5 1v21q0 8-10 8l-15 2q-13 2-19 5t-5 12 4 17 14 31l73 150 81-162q16-32 5-43-6-8-37-11l-9-1q-4 0-7-3-3-1-3-6v-19l3-2q57-1 186 0l2 2v20q0 8-9 8-22 1-30 4t-17 16q-23 34-30 48L608 557l-3 7 128 262 8 3 202-481q12-28-3-41-13-12-39-13l-19-1q-3 0-6-3-4-2-4-6v-20l3-2h229l2 2v20q0 7-9 9-46 2-66 19-20 16-34 49L747 928q-10 23-22 30t-24-1-23-30q-38-75-122-263-105 216-131 264-41 71-71 1-32-75-130-285T94 358q-16-42-28-52-11-10-52-13-14-2-14-7z" fill="#ffff66"/></svg>
