<?xml version="1.0" encoding="UTF-8"?>
<svg xmlns="http://www.w3.org/2000/svg" viewBox="0 0 1233 1242.1325"><path d="M0 1006l105-371q35-20 86-31t83-13l34-1q50 0 104 10 101 20 144 61l-104 370q-36-28-79-45t-69-21l-26-4q-34-3-65-3-16 0-42 1t-84 14-87 33zm126-477l105-371q35-20 86-32t84-12l33-1q51 0 104 10 101 20 144 61L578 555q-36-28-79-46t-69-20l-26-4q-35-3-64-3-16 0-42 1t-84 13-88 33zm431 513l104-371q37 28 81 45t68 21l25 4q34 3 65 3 16 0 43-2t84-13 86-32l-104 371q-35 20-86 31t-84 12l-33 2q-51 0-104-10-101-20-145-61zm120-475l104-370q37 28 81 45t68 21l25 4q34 3 65 3 16 0 43-2t83-13 87-32l-104 370q-35 20-86 31t-85 13l-33 2q-52 0-103-11-101-19-145-61z" fill="#ffff66"/></svg>
