<?xml version="1.0" encoding="UTF-8"?>
<svg xmlns="http://www.w3.org/2000/svg" xmlns:xlink="http://www.w3.org/1999/xlink" id="Layer_1" style="enable-background:new 0 0 24 24;" version="1.1" viewBox="0 0 24 24" xml:space="preserve"><path d="M22,3c-0.551,0-1,0.449-1,1c0,0.117,0.03,0.225,0.067,0.329L17.114,9h-1.133  C16.638,8.141,17,7.095,17,6c0-2.757-2.243-5-5-5C9.243,1,7,3.243,7,6c0,1.095,0.362,2.141,1.019,3H7.707L3.951,5.244  C3.971,5.164,4,5.086,4,5c0-0.551-0.449-1-1-1C2.449,4,2,4.449,2,5s0.449,1,1,1c0.086,0,0.164-0.029,0.244-0.049l5.903,5.903  c0.195,0.195,0.195,0.512,0,0.707c-0.189,0.188-0.518,0.188-0.707,0L5.157,9.278C5.019,9.139,4.812,9.095,4.629,9.163  C3.655,9.526,3,10.465,3,11.5C3,12.878,4.122,14,5.5,14h2.453l-2.193,3.159l-2.78-1.264C2.924,15.396,2.514,15,2,15  c-0.551,0-1,0.449-1,1s0.449,1,1,1c0.213,0,0.399-0.082,0.562-0.195l4.731,2.151c0.122,0.055,0.214,0.155,0.261,0.28  c0.047,0.125,0.042,0.26-0.013,0.382c-0.11,0.244-0.416,0.36-0.662,0.249l-1.894-0.861c-0.235-0.107-0.51-0.019-0.639,0.203  c-0.671,1.15-0.331,2.628,0.781,3.369c0.977,0.65,2.351,0.514,3.18-0.315L12,18.569l3.692,3.692C16.168,22.738,16.801,23,17.475,23  c0.499,0,0.982-0.146,1.403-0.427c1.13-0.754,1.461-2.253,0.736-3.437L16.048,14H18.5c1.378,0,2.5-1.122,2.5-2.5  c0-0.807-0.396-1.568-1.058-2.038c-0.213-0.151-0.503-0.113-0.671,0.084l-1.627,1.922c-0.149,0.176-0.384,0.33-0.705,0.058  c-0.101-0.086-0.164-0.207-0.175-0.34c-0.011-0.133,0.03-0.263,0.117-0.365l4.955-5.856C21.892,4.976,21.942,5,22,5  c0.551,0,1-0.449,1-1S22.551,3,22,3z M12.646,4.853c-0.195-0.195-0.195-0.512,0-0.707s0.512-0.195,0.707,0l0.397,0.397l0.396-0.397  c0.195-0.195,0.512-0.195,0.707,0s0.195,0.512,0,0.707L14.457,5.25l0.396,0.397c0.195,0.195,0.195,0.512,0,0.707  C14.756,6.451,14.628,6.5,14.5,6.5c-0.128,0-0.256-0.049-0.354-0.147L13.75,5.957l-0.397,0.397C13.256,6.451,13.128,6.5,13,6.5  c-0.128,0-0.256-0.049-0.354-0.147c-0.195-0.195-0.195-0.512,0-0.707l0.397-0.397L12.646,4.853z M11.353,5.647  c0.195,0.195,0.195,0.512,0,0.707C11.256,6.451,11.128,6.5,11,6.5c-0.128,0-0.256-0.049-0.354-0.147L10.25,5.957L9.853,6.353  C9.756,6.451,9.628,6.5,9.5,6.5c-0.128,0-0.256-0.049-0.354-0.147c-0.195-0.195-0.195-0.512,0-0.707L9.543,5.25L9.146,4.853  c-0.195-0.195-0.195-0.512,0-0.707s0.512-0.195,0.707,0l0.397,0.397l0.396-0.397c0.195-0.195,0.512-0.195,0.707,0  s0.195,0.512,0,0.707L10.957,5.25L11.353,5.647z M15.039,16.881C14.945,16.961,14.83,17,14.715,17c-0.142,0-0.282-0.06-0.381-0.177  l-0.325-0.384c-0.093,0.077-0.206,0.116-0.319,0.116c-0.143,0-0.285-0.061-0.384-0.179c-0.175-0.209-0.149-0.519,0.057-0.698  l-0.65-0.766c-0.092,0.072-0.2,0.11-0.309,0.11c-0.143,0-0.285-0.06-0.383-0.179c-0.173-0.206-0.148-0.509,0.049-0.689l-0.452-0.533  c-0.179-0.21-0.153-0.526,0.058-0.705c0.21-0.178,0.526-0.152,0.704,0.058l0.453,0.534l0.014-0.012  c0.213-0.177,0.528-0.15,0.704,0.062c0.178,0.211,0.15,0.527-0.061,0.704l-0.01,0.009l0.647,0.763l0.007-0.005  c0.213-0.176,0.528-0.149,0.705,0.062c0.177,0.211,0.149,0.527-0.062,0.705l-0.002,0.002l0.322,0.379  C15.275,16.387,15.249,16.703,15.039,16.881z" id="XMLID_81_" style="fill:#303C42;" fill="#ffff66"/><g/><g/><g/><g/><g/><g/><g/><g/><g/><g/><g/><g/><g/><g/><g/></svg>
