<svg xmlns="http://www.w3.org/2000/svg" width="500" height="500" style="enable-background:new 0 0 504.065 504.065" viewBox="0 0 504.065 504.065"><path d="M41.493,281.6l45.686-79.951c4.726-8.271,15.36-11.028,23.631-6.302l337.132,196.529 c8.271,4.726,11.028,15.36,6.302,23.631l-45.686,79.951c-4.726,8.271-15.36,11.028-23.631,6.302L47.794,305.231 C39.523,300.505,36.767,289.871,41.493,281.6z" style="fill:#bf392b"/><path d="M87.573,203.225l-0.788-0.788l-9.058,16.148l258.757,230.794 C336.483,449.378,87.573,203.225,87.573,203.225z" style="fill:#ac3327"/><path d="M408.557,495.458l45.686-79.951c4.726-8.271,1.969-18.905-6.302-23.631L341.21,329.649 l-66.56,107.914l110.277,64.197C393.197,506.486,403.831,503.729,408.557,495.458z" style="fill:#d6d6d6"/><path d="M293.554,406.843l-1.969,2.757l44.505,39.778L293.554,406.843z" style="fill:#cacaca"/><path d="M87.573,179.2l64.591-64.197c6.695-6.695,17.723-6.695,24.418,0l274.905,272.148 c6.695,6.695,6.695,17.329,0,24.025l-64.591,64.197c-6.695,6.695-17.723,6.695-24.418,0L87.573,203.225 C80.877,196.529,80.877,185.895,87.573,179.2z" style="fill:#e2574c"/><path d="M147.831,119.335l-14.966,14.572l173.292,259.938C306.157,393.846,147.831,119.335,147.831,119.335z" style="fill:#cb4e44"/><path d="M451.486,411.175c6.695-6.695,6.695-17.329,0-24.025l-93.342-92.16l-89.797,87.04l94.129,93.342 c6.695,6.695,17.723,6.695,24.418,0C386.896,475.372,451.486,411.175,451.486,411.175z" style="fill:#e0e0e0"/><path d="M154.133,95.705l79.951-46.08c8.271-4.726,18.905-1.969,23.631,6.302L453.85,396.209 c4.726,8.271,1.969,18.905-6.302,23.631l-79.951,46.08c-8.271,4.726-18.905,1.969-23.631-6.302L147.831,119.335 C143.105,111.065,145.862,100.431,154.133,95.705z" style="fill:#d07c40"/><path d="M288.04,362.732l-1.575,1.575l19.692,29.538L288.04,362.732z" style="fill:#d1d1d1"/><path d="M367.991,466.314l79.951-46.08c8.271-4.726,11.028-15.36,6.302-23.631l-68.529-118.942 l-108.308,66.954l66.56,115.397C349.087,468.283,359.72,471.04,367.991,466.314z" style="fill:#ebebeb"/><path d="M240.779,56.714c-0.788-3.151-0.788-6.302,0-9.452c-2.363,0.394-4.332,1.182-6.695,2.363 l-16.148,9.452L329,382.031L240.779,56.714z M367.203,439.532h0.788v-0.394L367.203,439.532z" style="fill:#bb6f39"/><path d="M367.203,439.532h0.788v-0.394L367.203,439.532z M312.853,322.56l-3.545,2.363L329,382.031 L312.853,322.56z" style="fill:#dbdbdb"/><path d="M252.594,35.84l89.009-23.631c9.058-2.363,18.511,2.757,21.268,11.815L464.09,395.815 c2.363,9.058-3.151,18.511-12.209,20.874l-89.009,23.631c-9.058,2.363-18.511-2.757-21.268-11.815L240.779,56.714 C238.022,47.655,243.536,38.203,252.594,35.84z" style="fill:#f4b459"/><path d="M362.871,0h81.526c11.422,0,20.48,9.058,20.48,20.48v384.394c0,11.422-9.058,20.48-20.48,20.48 h-81.526c-11.422,0-20.48-9.058-20.48-20.48V20.48C342.391,9.058,351.45,0,362.871,0z" style="fill:#efc75e"/><path d="M308.52,306.806l33.083,121.698c2.363,9.058,11.815,14.572,21.268,11.815l89.009-23.631 c9.059-2.363,14.572-11.815,12.209-20.874l-33.083-120.123L308.52,306.806z" style="fill:#e6e6e6"/><path d="M342.391,20.48c0-3.151,0.788-5.908,1.969-8.271c-0.788,0-1.969,0-2.757,0.394l-20.874,5.514 l21.662,313.895V20.48z" style="fill:#dba250"/><path d="M342.391,275.298v129.575c0,11.422,9.058,20.48,20.48,20.48h81.526c11.422,0,20.48-9.058,20.48-20.48 V275.298H342.391z" style="fill:#efefef"/><path d="M342.391,298.142l-2.363,0.788l2.363,33.083V298.142z" style="fill:#ddd"/><path d="M362.083,295.385v19.692h66.954v-19.692H362.083z M362.083,397.785h27.569V385.97h-27.569V397.785z M362.083,370.215h27.569V358.4h-27.569V370.215z M362.083,342.646h27.569v-11.815h-27.569V342.646z M431.007,378.092 c5.514,0,9.846,4.332,9.846,9.846s-4.332,9.846-9.846,9.846s-9.846-4.332-9.846-9.846 C421.16,382.425,425.493,378.092,431.007,378.092z" style="fill:#bfbfbf"/></svg>