<?xml version="1.0" encoding="UTF-8"?>
<!-- Generator: Adobe Illustrator 18.0.0, SVG Export Plug-In . SVG Version: 6.00 Build 0)  -->
<!DOCTYPE svg PUBLIC "-//W3C//DTD SVG 1.1//EN" "http://www.w3.org/Graphics/SVG/1.1/DTD/svg11.dtd">
<svg xmlns="http://www.w3.org/2000/svg" xmlns:xlink="http://www.w3.org/1999/xlink" version="1.1" id="Capa_1" x="0px" y="0px" viewBox="0 0 392.903 392.903" style="enable-background:new 0 0 392.903 392.903;" xml:space="preserve">
<path d="M336.249,293.968c-3.664-49.969-27.417-81.696-46.697-99.512c-2.221-2.052-4.429-3.962-6.606-5.752  c-0.007-71.827-22.898-119.086-42.102-146.084c-20.933-29.429-41.7-41.628-42.574-42.132c-1.126-0.65-2.512-0.65-3.638,0  c-0.873,0.504-21.64,12.704-42.573,42.132c-19.204,26.998-42.095,74.257-42.102,146.084c-2.177,1.79-4.385,3.7-6.607,5.752  C84.07,212.273,60.317,244,56.653,293.969c-0.12,1.63,0.445,3.238,1.558,4.435c1.113,1.198,2.674,1.878,4.309,1.878h73.904  c4.208,8.025,8.577,14.491,12.83,18.801c0.683,0.692,1.615,1.081,2.587,1.081h1.804c2.718,38.674,33.565,68.311,34.938,69.608  c2.207,2.088,5.037,3.131,7.867,3.131c2.83,0,5.66-1.043,7.867-3.131c1.373-1.298,32.219-30.934,34.938-69.608h1.805  c0.972,0,1.904-0.389,2.587-1.081c4.253-4.309,8.622-10.775,12.83-18.801h73.904c1.635,0,3.196-0.681,4.309-1.878  C335.804,297.206,336.369,295.599,336.249,293.968z M196.451,100.677c17.824,0,32.273,14.449,32.273,32.273  c0,17.824-14.449,32.273-32.273,32.273s-32.273-14.45-32.273-32.273C164.178,115.126,178.627,100.677,196.451,100.677z   M196.452,364.228c-7.548-9.537-18.042-25.777-19.847-44.064h39.692C214.492,338.453,203.995,354.695,196.452,364.228z" fill="#ffff66"/>
<g>
</g>
<g>
</g>
<g>
</g>
<g>
</g>
<g>
</g>
<g>
</g>
<g>
</g>
<g>
</g>
<g>
</g>
<g>
</g>
<g>
</g>
<g>
</g>
<g>
</g>
<g>
</g>
<g>
</g>
</svg>
