<?xml version="1.0" encoding="UTF-8"?>
<!-- Generator: Adobe Illustrator 18.0.0, SVG Export Plug-In . SVG Version: 6.00 Build 0)  -->
<!DOCTYPE svg PUBLIC "-//W3C//DTD SVG 1.1//EN" "http://www.w3.org/Graphics/SVG/1.1/DTD/svg11.dtd">
<svg xmlns="http://www.w3.org/2000/svg" xmlns:xlink="http://www.w3.org/1999/xlink" version="1.1" id="Capa_1" x="0px" y="0px" viewBox="0 0 341.32 341.32" style="enable-background:new 0 0 341.32 341.32;" xml:space="preserve">
<g>
	<path d="M150.111,183.62H7.469c-4.125,0-7.469,3.344-7.469,7.469v142.643c0,4.123,3.344,7.466,7.469,7.466h142.643   c4.123,0,7.465-3.343,7.465-7.466V191.089C157.576,186.964,154.234,183.62,150.111,183.62z M115.246,278.326   c5.673,5.673,5.673,14.868,0,20.541c-2.836,2.836-6.553,4.254-10.27,4.254s-7.435-1.418-10.271-4.254L78.789,282.95l-15.917,15.917   c-2.836,2.836-6.554,4.254-10.271,4.254s-7.435-1.418-10.271-4.254c-5.671-5.673-5.671-14.868,0-20.541l15.918-15.917   L42.33,246.492c-5.671-5.673-5.671-14.868,0-20.541c5.673-5.672,14.87-5.672,20.542,0l15.917,15.917l15.917-15.917   c5.672-5.672,14.869-5.672,20.54,0c5.673,5.673,5.673,14.868,0,20.541L99.33,262.409L115.246,278.326z" fill="#ffff66"/>
	<path d="M333.855,0.123H191.215c-4.127,0-7.469,3.343-7.469,7.468v142.643c0,4.125,3.342,7.466,7.469,7.466h142.641   c4.123,0,7.465-3.341,7.465-7.466V7.591C341.32,3.466,337.978,0.123,333.855,0.123z M299.568,93.437h-74.07   c-8.021,0-14.524-6.504-14.524-14.525s6.503-14.524,14.524-14.524h74.07c8.021,0,14.524,6.503,14.524,14.524   S307.59,93.437,299.568,93.437z" fill="#ffff66"/>
	<path d="M333.855,183.62H191.215c-4.127,0-7.469,3.344-7.469,7.469v142.643c0,4.123,3.342,7.466,7.469,7.466h142.641   c4.123,0,7.465-3.343,7.465-7.466V191.089C341.32,186.964,337.978,183.62,333.855,183.62z M299.568,307.248h-74.07   c-8.021,0-14.524-6.503-14.524-14.524c0-8.022,6.503-14.524,14.524-14.524h74.07c8.021,0,14.524,6.503,14.524,14.524   C314.093,300.745,307.59,307.248,299.568,307.248z M299.568,246.619h-74.07c-8.021,0-14.524-6.503-14.524-14.524   s6.503-14.524,14.524-14.524h74.07c8.021,0,14.524,6.503,14.524,14.524S307.59,246.619,299.568,246.619z" fill="#ffff66"/>
	<path d="M150.111,0.123H7.469C3.344,0.123,0,3.466,0,7.591v142.643c0,4.125,3.344,7.466,7.469,7.466h142.643   c4.123,0,7.465-3.341,7.465-7.466V7.591C157.576,3.466,154.234,0.123,150.111,0.123z M115.824,93.437H93.313v22.51   c0,8.021-6.502,14.524-14.523,14.524s-14.525-6.503-14.525-14.524v-22.51h-22.51c-8.021,0-14.525-6.504-14.525-14.525   s6.504-14.524,14.525-14.524h22.51V41.876c0-8.021,6.504-14.523,14.525-14.523s14.523,6.502,14.523,14.523v22.511h22.512   c8.021,0,14.523,6.503,14.523,14.524S123.846,93.437,115.824,93.437z" fill="#ffff66"/>
</g>
<g>
</g>
<g>
</g>
<g>
</g>
<g>
</g>
<g>
</g>
<g>
</g>
<g>
</g>
<g>
</g>
<g>
</g>
<g>
</g>
<g>
</g>
<g>
</g>
<g>
</g>
<g>
</g>
<g>
</g>
</svg>
