<?xml version="1.0" encoding="UTF-8"?>
<!-- Generator: Adobe Illustrator 18.0.0, SVG Export Plug-In . SVG Version: 6.00 Build 0)  -->
<!DOCTYPE svg PUBLIC "-//W3C//DTD SVG 1.1//EN" "http://www.w3.org/Graphics/SVG/1.1/DTD/svg11.dtd">
<svg xmlns="http://www.w3.org/2000/svg" xmlns:xlink="http://www.w3.org/1999/xlink" version="1.1" id="Capa_1" x="0px" y="0px" viewBox="0 0 368.836 368.836" style="enable-background:new 0 0 368.836 368.836;" xml:space="preserve">
<g>
	<path d="M359.942,219.659H258.834v88.04h101.108c4.912,0,8.894-3.98,8.894-8.892v-70.257   C368.836,223.64,364.854,219.659,359.942,219.659z" fill="#ffff66"/>
	<path d="M0,228.551v70.257c0,4.912,3.981,8.892,8.893,8.892H110v-88.04H8.893C3.981,219.659,0,223.64,0,228.551z" fill="#ffff66"/>
	<path d="M184.418,208.912c31.105,0,56.422-25.269,56.496-56.358c0.002-0.048,0.006-0.094,0.006-0.142   c0-2.376-1.926-4.302-4.303-4.302h-0.004H132.223c-2.377,0-4.303,1.927-4.303,4.302   C127.92,183.564,153.264,208.912,184.418,208.912z" fill="#ffff66"/>
	<path d="M184.418,224.151c-28.854,0-53.824-16.92-65.525-41.358v162.819c0,9.808,7.979,17.787,17.787,17.787h95.477   c9.807,0,17.785-7.979,17.785-17.787V182.76C238.237,207.208,213.252,224.151,184.418,224.151z" fill="#ffff66"/>
	<path d="M263.522,106.902c-18.22-25.511-47.791-40.741-79.104-40.741c-31.312,0-60.884,15.23-79.104,40.741   c-5.198,7.277-3.512,17.391,3.765,22.588c2.853,2.038,6.14,3.017,9.398,3.017c5.052,0,10.03-2.358,13.19-6.782   c12.155-17.018,31.875-27.178,52.751-27.178s40.596,10.16,52.75,27.178c5.197,7.279,15.311,8.964,22.588,3.766   C267.033,124.293,268.72,114.18,263.522,106.902z" fill="#ffff66"/>
	<path d="M68.183,80.698c3.094,2.78,6.962,4.149,10.818,4.149c4.435,0,8.853-1.812,12.05-5.37   c23.787-26.472,57.818-41.654,93.368-41.654c35.55,0,69.581,15.182,93.368,41.652c5.977,6.652,16.215,7.198,22.867,1.221   c6.651-5.978,7.198-16.216,1.221-22.868c-29.92-33.295-72.731-52.392-117.456-52.392c-44.725,0-87.536,19.097-117.456,52.393   C60.984,64.482,61.531,74.72,68.183,80.698z" fill="#ffff66"/>
</g>
<g>
</g>
<g>
</g>
<g>
</g>
<g>
</g>
<g>
</g>
<g>
</g>
<g>
</g>
<g>
</g>
<g>
</g>
<g>
</g>
<g>
</g>
<g>
</g>
<g>
</g>
<g>
</g>
<g>
</g>
</svg>
