<?xml version="1.0" encoding="UTF-8"?>
<!-- Generator: Adobe Illustrator 18.0.0, SVG Export Plug-In . SVG Version: 6.00 Build 0)  -->
<!DOCTYPE svg PUBLIC "-//W3C//DTD SVG 1.1//EN" "http://www.w3.org/Graphics/SVG/1.1/DTD/svg11.dtd">
<svg xmlns="http://www.w3.org/2000/svg" xmlns:xlink="http://www.w3.org/1999/xlink" version="1.1" id="Capa_1" x="0px" y="0px" viewBox="0 0 366.987 366.987" style="enable-background:new 0 0 366.987 366.987;" xml:space="preserve">
<path style="fill-rule:evenodd;clip-rule:evenodd;" d="M245.361,142.269V52.208c2.202,0.986,4.636,1.547,7.205,1.547  c9.754,0,17.66-7.907,17.66-17.66V17.66c0-9.753-7.906-17.66-17.66-17.66H114.423c-9.754,0-17.66,7.907-17.66,17.66v18.434  c0,9.754,7.906,17.66,17.66,17.66c2.567,0,5-0.56,7.201-1.545v90.06c-36.961,21.776-60.283,61.961-60.283,105.333  c0,27.702,9.532,54.836,26.84,76.402c17.036,21.228,40.939,36.328,67.306,42.516c1.323,0.311,2.678,0.467,4.036,0.467h47.939  c1.358,0,2.713-0.156,4.035-0.467c26.367-6.189,50.271-21.288,67.309-42.516c17.308-21.566,26.84-48.7,26.84-76.402  C305.646,204.23,282.323,164.045,245.361,142.269z M213.026,329.288c39.301-27.298,41.116-133.497-0.671-133.497  c-26.53,0-74.762-0.196-98.236-0.299c8.406-11.212,19.521-20.453,32.646-26.591c6.211-2.904,10.18-9.141,10.18-15.998V35.821h53.096  v117.081c0,6.857,3.969,13.094,10.18,15.998c30.438,14.233,50.105,45.125,50.105,78.701  C270.326,284.746,247.212,317.037,213.026,329.288z" fill="#ffff66"/>
<g>
</g>
<g>
</g>
<g>
</g>
<g>
</g>
<g>
</g>
<g>
</g>
<g>
</g>
<g>
</g>
<g>
</g>
<g>
</g>
<g>
</g>
<g>
</g>
<g>
</g>
<g>
</g>
<g>
</g>
</svg>
