<?xml version="1.0" encoding="UTF-8"?>
<!-- Generator: Adobe Illustrator 18.0.0, SVG Export Plug-In . SVG Version: 6.00 Build 0)  -->
<!DOCTYPE svg PUBLIC "-//W3C//DTD SVG 1.1//EN" "http://www.w3.org/Graphics/SVG/1.1/DTD/svg11.dtd">
<svg xmlns="http://www.w3.org/2000/svg" xmlns:xlink="http://www.w3.org/1999/xlink" version="1.1" id="Capa_1" x="0px" y="0px" viewBox="0 0 345.662 345.662" style="enable-background:new 0 0 345.662 345.662;" xml:space="preserve">
<path d="M310.115,318.603L234.61,152.747V53.067c3.419,3.196,7.998,5.167,13.048,5.167c10.566,0,19.132-8.566,19.132-19.132v-19.97  C266.79,8.565,258.224,0,247.658,0h-32.18h-85.293h-32.18C87.439,0,78.873,8.565,78.873,19.132v19.97  c0,10.566,8.565,19.132,19.132,19.132c5.049,0,9.629-1.971,13.048-5.167v99.68L35.547,318.603  c-2.696,5.922-2.197,12.808,1.324,18.28c3.521,5.472,9.582,8.779,16.089,8.779h239.744c6.507,0,12.567-3.307,16.089-8.779  C312.312,331.411,312.811,324.525,310.115,318.603z M242.752,307.398l-50.25-105.912c-2.111-4.45-6.598-7.287-11.523-7.287h-46.753  l13.373-29.374c1.133-2.489,1.719-5.192,1.719-7.927V38.264h47.029v118.633c0,2.735,0.586,5.438,1.719,7.927l64.906,142.574H242.752  z" fill="#ffff66"/>
<g>
</g>
<g>
</g>
<g>
</g>
<g>
</g>
<g>
</g>
<g>
</g>
<g>
</g>
<g>
</g>
<g>
</g>
<g>
</g>
<g>
</g>
<g>
</g>
<g>
</g>
<g>
</g>
<g>
</g>
</svg>
