<?xml version="1.0" encoding="UTF-8"?>
<svg xmlns="http://www.w3.org/2000/svg" viewBox="0 0 1000 1242.1325"><path d="M930 313q28 0 49 21t21 49v460q0 30-21 50t-49 20H70q-28 0-49-20T0 843V383q0-28 21-49t49-21h860zM550 413v100h100V413H550zm150 150H600v100h100V563zM400 413v100h100V413H400zm150 150H450v100h100V563zM250 413v100h100V413H250zm150 150H300v100h100V563zM100 413v100h100V413H100zm150 150H150v100h100V563zm-50 250V713H100v100h100zm550 0V713H250v100h500zm150 0V713H800v100h100zM750 663h100V563H750v100zm150-150V413H700v100h200z" fill="#ffff66"/></svg>
