<?xml version="1.0" encoding="UTF-8"?>
<svg xmlns="http://www.w3.org/2000/svg" viewBox="0 0 834 1242.1325"><path d="M651 560h-78v105h78q75 0 129 54t54 129-54 128-129 53-128-53-54-128v-79H365v79q0 75-54 128t-128 53-129-53T0 848t54-129 129-54h77V560h-77q-75 0-129-54T0 378t54-128 129-54 128 54 54 128v78h104v-78q0-75 54-128t128-54 129 54 54 128-54 128-129 54zm-78-182v78h78q32 0 55-23t23-55-23-55-55-23q-32 0-55 23t-23 55zM260 848v-79h-77q-33 0-56 23t-23 56q0 31 23 54t56 23 55-22 22-55zm0-392v-78q0-33-22-55t-55-23-56 23-23 55q0 32 23 55t56 23h77zm209 209V560H365v105h104zm182 104h-78v79q0 31 23 54t55 23q32 0 55-22t23-55-23-56-55-23z" fill="#ffff66"/></svg>
