<?xml version="1.0" encoding="UTF-8"?>
<!-- Generator: Adobe Illustrator 18.0.0, SVG Export Plug-In . SVG Version: 6.00 Build 0)  -->
<!DOCTYPE svg PUBLIC "-//W3C//DTD SVG 1.1//EN" "http://www.w3.org/Graphics/SVG/1.1/DTD/svg11.dtd">
<svg xmlns="http://www.w3.org/2000/svg" xmlns:xlink="http://www.w3.org/1999/xlink" version="1.1" id="Capa_1" x="0px" y="0px" viewBox="0 0 358.029 358.029" style="enable-background:new 0 0 358.029 358.029;" xml:space="preserve">
<g>
	<path d="M26.071,146.359l139.169,24.495c0.284,0.05,0.564,0.069,0.849,0.069c2.533-0.016,4.581-2.074,4.581-4.61   c0-1.071-0.365-2.057-0.978-2.839l-23.353-35.832c14.056-5.864,37.887-13.621,65.577-13.621c14.388,0,28.15,2.159,40.903,6.419   c11.619,3.879,27.785,14.302,41.185,26.553c9.603,8.781,18.371,18.763,26.85,28.416c1.954,2.224,3.909,4.45,5.878,6.667   c0.89,1.002,2.151,1.549,3.448,1.549c0.461,0,0.925-0.068,1.379-0.211c1.732-0.543,2.984-2.052,3.199-3.854l0.068-0.58   c3.806-32.771-4.197-67.192-21.956-94.437c-19.014-29.164-49.162-50.295-84.892-59.502c-14.247-3.671-29.235-5.532-44.548-5.532   c-20.31,0-40.85,3.218-61.06,9.565c-11.043,3.493-21.725,7.856-31.811,12.986L64.507,2.091c-1.003-1.539-2.827-2.327-4.634-2.028   c-1.811,0.308-3.267,1.66-3.705,3.444l-33.774,137.21c-0.305,1.239-0.083,2.55,0.614,3.619   C23.705,145.405,24.814,146.138,26.071,146.359z" fill="#ffff66"/>
	<path d="M335.021,213.691c-0.697-1.069-1.806-1.802-3.063-2.023L192.79,187.172c-1.81-0.316-3.634,0.468-4.646,2   c-1.012,1.532-1.018,3.52-0.016,5.059l23.563,36.155c-14.056,5.864-37.887,13.621-65.576,13.621c-14.388,0-28.15-2.16-40.904-6.42   c-11.621-3.88-27.787-14.303-41.185-26.553c-9.603-8.781-18.371-18.762-26.85-28.413c-1.954-2.225-3.91-4.451-5.879-6.668   c-1.208-1.359-3.101-1.883-4.835-1.335c-1.734,0.547-2.984,2.063-3.192,3.868l-0.065,0.563   c-3.807,32.773,4.196,67.192,21.957,94.433c19.013,29.166,49.161,50.298,84.891,59.503c14.25,3.671,29.24,5.532,44.555,5.532   c0.002,0,0.001,0,0.004,0c20.306,0,40.845-3.217,61.049-9.565c11.043-3.493,21.725-7.855,31.81-12.985l26.051,39.969   c0.86,1.319,2.321,2.093,3.861,2.093c0.256,0,0.515-0.021,0.773-0.064c1.811-0.308,3.266-1.66,3.706-3.444l33.775-137.21   C335.941,216.071,335.719,214.761,335.021,213.691z" fill="#ffff66"/>
</g>
<g>
</g>
<g>
</g>
<g>
</g>
<g>
</g>
<g>
</g>
<g>
</g>
<g>
</g>
<g>
</g>
<g>
</g>
<g>
</g>
<g>
</g>
<g>
</g>
<g>
</g>
<g>
</g>
<g>
</g>
</svg>
