<?xml version="1.0" encoding="UTF-8"?>
<svg xmlns="http://www.w3.org/2000/svg" viewBox="0 0 889 1242.1325"><path d="M0 623q0-197 130-334 136-144 350-144 175 0 288 98 121 105 121 278 0 135-77 233-76 97-174 97-50 0-78-31t-28-65q0-1 1-4t0-5q0-1 1-5t0-6q-22 45-47 69-46 46-112 46-67 0-111-52-45-52-45-145 0-109 68-203 69-95 166-95 57 0 91 34 25 28 32 62l20-75h104l-71 260q-3 12-7 28t-5 19q-3 14-3 26 0 18 11 34t35 16q48 0 96-67 48-69 48-179 0-165-131-237-80-45-183-45-188 0-302 125Q86 467 86 626q0 176 120 278 107 90 260 90 105 0 195-42 50-22 103-63l13-10q4-3 10-5t14-3 15 4 13 16q6 17 3 29t-8 19l-7 7q-77 66-169 101t-189 35q-229 0-355-155Q0 799 0 623zm340 41q0 44 18 71t52 27q59 0 97-97 37-98 37-153 0-32-17-54-17-21-47-21-58 0-99 77t-41 150z" fill="#ffff66"/></svg>
