<?xml version="1.0" encoding="UTF-8"?>
<svg xmlns="http://www.w3.org/2000/svg" viewBox="0 0 857.1015 1242.1325"><path d="M714 827q0-29-21-50t-50-21-50 21-22 50 22 50 50 22 50-22 21-50zM286 399q0-29-21-51t-51-21-50 21-21 51 21 50 50 21 51-21 21-50zm571 428q0 89-63 152t-151 63-152-63-62-152 62-151 152-63 151 63 63 151zm-53-607q0 11-8 21l-589 786q-11 15-28 15H89q-14 0-25-11t-10-25q0-11 7-21l589-786q11-15 29-15h89q14 0 25 11t11 25zM429 399q0 88-63 151t-152 63-151-63T0 399t63-152 151-63 152 63 63 152z" fill="#ffff66"/></svg>
