<?xml version="1.0" encoding="UTF-8"?>
<svg xmlns="http://www.w3.org/2000/svg" viewBox="0 0 1113 1242.1325"><path d="M1113 407q0 67-26 129t-74 110l-448 444-62-61 448-444q74-72 74-178 0-89-58-148t-148-58q-102 0-180 75L146 765q-59 59-59 133 0 57 37 94t94 36q75 0 134-59l377-372q53-55 53-97 0-21-16-33t-38-12q-48 0-86 40L302 831l-61-61 339-336q66-66 148-66 58 0 100 37t42 94q0 78-79 159l-377 372q-84 84-196 84-93 0-155-61T0 898q0-110 84-194l493-489q104-101 242-101 125 0 210 84t84 209z" fill="#ffff66"/></svg>
