<?xml version="1.0" encoding="UTF-8"?>
<svg xmlns="http://www.w3.org/2000/svg" viewBox="0 0 893 1242.1325"><path d="M0 1113V464h893v649H0zm0-705V187h109v141h200V187h275v141h199V187h110v221H0zm168-139V113h82v156h-82zm59 619q0 112 123 112 47 0 84-32 39-31 39-80 0-68-78-90 48-15 64-48 12-28-2-73-27-62-107-62-51 0-86 26t-37 77h72q0-45 49-46 43 0 45 52 0 49-84 47v57q48 0 68 8 23 11 23 46 0 57-54 61-43 0-47-55h-72zm281-146q49-14 88-47v297h70V621h-64q-38 37-94 58v63zm135-473V113h82v156h-82z" fill="#ffff66"/></svg>
