<?xml version="1.0" encoding="UTF-8"?>
<svg xmlns="http://www.w3.org/2000/svg" viewBox="0 0 899.2262 1242.1325"><path d="M819 325q16 16 27 42t11 50v642q0 23-15 38t-38 16H54q-23 0-38-16t-16-38V167q0-23 16-38t38-16h500q22 0 49 11t42 27zM571 189v210h210q-5-17-12-23L594 201q-6-7-23-12zm215 853V470H554q-23 0-38-16t-16-37V184H71v858h715zM268 542q4-7 12-7t13 3l28 21q7 5 7 12t-3 13L223 720l102 136q4 6 3 13t-7 12l-28 21q-6 4-13 4t-12-7L142 731q-8-11 0-22zm447 167q8 11 0 22L589 899q-4 6-11 7t-14-4l-28-21q-6-5-7-12t3-13l102-136-102-136q-4-6-3-13t7-12l28-21q6-4 14-3t11 7zM369 967q-7-1-11-8t-3-13l77-464q1-7 7-11t14-3l35 5q7 2 11 8t3 13l-77 464q-1 7-7 11t-13 3z" fill="#ffff66"/></svg>
