<?xml version="1.0" encoding="UTF-8"?>
<svg xmlns="http://www.w3.org/2000/svg" viewBox="0 0 899.2262 1242.1325"><path d="M819 325q16 16 27 42t11 50v642q0 23-15 38t-38 16H54q-23 0-38-16t-16-38V167q0-23 16-38t38-16h500q22 0 49 11t42 27zM571 189v210h210q-5-17-12-23L594 201q-6-7-23-12zm215 853V470H554q-23 0-38-16t-16-37V184H71v858h715zM232 911v59h183v-59h-52v-93h76q43 0 66-9 37-12 60-48t22-82q0-45-21-78t-56-49q-27-10-72-10H232v59h52v310h-52zm197-156h-66V605h67q29 0 46 10 31 19 31 64 0 50-34 67-18 9-44 9z" fill="#ffff66"/></svg>
