<?xml version="1.0" encoding="UTF-8"?>
<svg xmlns="http://www.w3.org/2000/svg" viewBox="0 0 899.2262 1242.1325"><path d="M819 325q16 16 27 42t11 50v642q0 23-15 38t-38 16H54q-23 0-38-16t-16-38V167q0-23 16-38t38-16h500q22 0 49 11t42 27zM571 189v210h210q-5-17-12-23L594 201q-6-7-23-12zm215 853V470H554q-23 0-38-16t-16-37V184H71v858h715zM239 911v59h157v-59h-42l58-90q3-4 5-9t5-8 2-2h1q0 2 3 6 1 2 2 4t3 4 4 5l60 90h-43v59h163v-59h-38L472 759l108-158h38v-59H462v59h41l-57 89q-2 4-6 9t-5 8l-1 1h-1q0-2-3-5-3-6-9-13l-59-89h42v-59H242v59h38l106 152-109 158h-38z" fill="#ffff66"/></svg>
