<?xml version="1.0" encoding="UTF-8"?>
<svg xmlns="http://www.w3.org/2000/svg" viewBox="0 0 899.2262 1242.1325"><path d="M357 327v-71h-71v71h71zm72 72v-72h-72v72h72zm-72 71v-71h-71v71h71zm72 72v-72h-72v72h72zm390-217q16 16 27 42t11 50v642q0 23-15 38t-38 16H54q-23 0-38-16t-16-38V167q0-23 16-38t38-16h500q22 0 49 11t42 27zM571 189v210h210q-5-17-12-23L594 201q-6-7-23-12zm215 853V470H554q-23 0-38-16t-16-37V184h-71v72h-72v-72H71v858h715zM436 639l60 195q4 15 4 29 0 46-40 77t-103 30-102-30-41-77q0-14 5-29 12-35 67-221v-71h71v71h44q13 0 22 7t13 19zm-79 260q30 0 51-11t21-25-21-25-51-11-50 11-21 25 21 25 50 11z" fill="#ffff66"/></svg>
