<?xml version="1.0" encoding="UTF-8"?>
<!-- Generator: Adobe Illustrator 18.0.0, SVG Export Plug-In . SVG Version: 6.00 Build 0)  -->
<!DOCTYPE svg PUBLIC "-//W3C//DTD SVG 1.1//EN" "http://www.w3.org/Graphics/SVG/1.1/DTD/svg11.dtd">
<svg xmlns="http://www.w3.org/2000/svg" xmlns:xlink="http://www.w3.org/1999/xlink" version="1.1" id="Capa_1" x="0px" y="0px" viewBox="0 0 332.635 332.635" style="enable-background:new 0 0 332.635 332.635;" xml:space="preserve">
<g>
	<path d="M323.412,137.966h-17.756v-36.42c0-5.094-4.129-9.223-9.221-9.223H9.219C4.127,92.323,0,96.452,0,101.546v129.545   c0,5.092,4.127,9.221,9.219,9.221h287.217c5.092,0,9.221-4.129,9.221-9.221v-36.422h17.756c5.092,0,9.223-4.129,9.223-9.221   v-38.262C332.635,142.093,328.504,137.966,323.412,137.966z M280.193,217.286H27.541V115.347h252.652V217.286z" fill="#ffff66"/>
	<path d="M77.595,171.65l80.937,30.089c0.583,0.217,1.191,0.327,1.811,0.327c1.434,0,2.779-0.58,3.808-1.65   c1.014-1.066,1.572-2.49,1.572-4.011v-24.429H225.4c2.758,0,5.059-2.172,5.355-5.105c0.234-2.603-1.225-5.023-3.548-5.887   L146.285,130.9c-1.945-0.73-4.195-0.192-5.598,1.284c-1.033,1.066-1.603,2.502-1.603,4.045v24.431H79.404   c-2.767,0-5.066,2.178-5.358,5.156c-0.014,0.171-0.022,0.33-0.022,0.503C74.023,168.714,75.459,170.855,77.595,171.65z" fill="#ffff66"/>
</g>
<g>
</g>
<g>
</g>
<g>
</g>
<g>
</g>
<g>
</g>
<g>
</g>
<g>
</g>
<g>
</g>
<g>
</g>
<g>
</g>
<g>
</g>
<g>
</g>
<g>
</g>
<g>
</g>
<g>
</g>
</svg>
