<?xml version="1.0" encoding="UTF-8"?>
<svg xmlns="http://www.w3.org/2000/svg" viewBox="0 0 622.2473 1242.1325"><path d="M357 863q0 45-31 76t-76 31-76-31-31-76q0-34 19-61t52-40V256h72v506q32 12 52 40t19 61zm72 0q0-43-19-80t-53-63V292q0-45-31-76t-76-32-76 32-31 76v428q-34 25-53 63t-19 80q0 74 53 126t126 53 126-53 53-126zm71 0q0 103-73 177t-177 73-177-73T0 863q0-102 71-175V292q0-75 53-127t126-52 126 52 53 127v396q71 73 71 175zm71-321v71H464v-71h107zm0-143v71H464v-71h107zm0-143v71H464v-71h107z" fill="#ffff66"/></svg>
