<svg xmlns="http://www.w3.org/2000/svg" viewBox="0 0 1024 1234"><path d="M512 1029q-104 0-199-40.5t-163.5-109T40.5 716 0 517t40.5-199 109-163.5T313 45.5 512 5t199 40.5 163.5 109 109 163.5 40.5 199-40.5 199-109 163.5-163.5 109-199 40.5zm0-896q-104 0-192.5 51.5t-140 140T128 517t51.5 192.5 140 140T512 901t192.5-51.5 140-140T896 517t-51.5-192.5-140-140T512 133zm0 704q-87 0-160.5-43T235 677.5 192 517t43-160.5T351.5 240 512 197t160.5 43T789 356.5 832 517t-43 160.5T672.5 794 512 837zm-.5-512Q432 325 376 381t-56 136 56 136 136 56 136-56 56-136-56.5-136-136-56zm.5 320q-53 0-90.5-37.5T384 517t37.5-90.5T512 389t90.5 37.5T640 517t-37.5 90.5T512 645z"/></svg>