<?xml version="1.0" encoding="UTF-8"?>
<!-- Generator: Adobe Illustrator 18.0.0, SVG Export Plug-In . SVG Version: 6.00 Build 0)  -->
<!DOCTYPE svg PUBLIC "-//W3C//DTD SVG 1.1//EN" "http://www.w3.org/Graphics/SVG/1.1/DTD/svg11.dtd">
<svg xmlns="http://www.w3.org/2000/svg" xmlns:xlink="http://www.w3.org/1999/xlink" version="1.1" id="Capa_1" x="0px" y="0px" viewBox="0 0 379.9 379.9" style="enable-background:new 0 0 379.9 379.9;" xml:space="preserve">
<g>
	<path d="M108.759,148.744c0.079-1.22-0.331-2.422-1.138-3.34L71.096,103.85c-0.807-0.918-1.946-1.478-3.167-1.557   c-1.226-0.078-2.422,0.331-3.34,1.138c-16.783,14.753-30.714,32.151-41.408,51.712c-0.586,1.073-0.723,2.335-0.379,3.508   c0.344,1.173,1.14,2.162,2.213,2.748l48.546,26.536c0.702,0.384,1.46,0.566,2.208,0.566c1.631,0,3.212-0.868,4.049-2.4   c7.068-12.929,16.282-24.432,27.384-34.191C108.121,151.104,108.681,149.965,108.759,148.744z" fill="#ffff66"/>
	<path d="M125.058,133.355c0.828,1.561,2.425,2.451,4.077,2.451c0.729,0,1.468-0.173,2.156-0.538   c13.012-6.901,27.01-11.404,41.606-13.384c2.523-0.342,4.291-2.665,3.949-5.188l-7.436-54.822   c-0.342-2.523-2.672-4.289-5.188-3.949c-22.166,3.006-43.421,9.843-63.175,20.321c-2.249,1.193-3.105,3.983-1.913,6.233   L125.058,133.355z" fill="#ffff66"/>
	<path d="M65.666,207.545l-53.395-14.487c-1.18-0.319-2.439-0.158-3.5,0.45c-1.061,0.608-1.836,1.613-2.157,2.793   C2.226,212.48,0,229.249,0,246.142c0,2.891,0.069,5.791,0.212,8.867c0.115,2.471,2.153,4.397,4.602,4.397   c0.072,0,0.145-0.001,0.217-0.005l55.266-2.553c1.221-0.056,2.371-0.596,3.194-1.499c0.824-0.903,1.255-2.098,1.198-3.319   c-0.096-2.074-0.143-4-0.143-5.887c0-11.186,1.468-22.268,4.363-32.941C69.575,210.744,68.123,208.212,65.666,207.545z" fill="#ffff66"/>
	<path d="M272.343,74.952c-20.119-9.699-41.615-15.71-63.891-17.869c-1.224-0.123-2.432,0.253-3.376,1.03   c-0.944,0.777-1.54,1.897-1.658,3.115l-5.334,55.068c-0.246,2.534,1.61,4.788,4.145,5.033c14.682,1.422,28.842,5.381,42.087,11.766   c0.63,0.304,1.315,0.458,2.002,0.458c0.513,0,1.027-0.086,1.521-0.258c1.154-0.403,2.101-1.249,2.632-2.35l24.023-49.838   C275.6,78.813,274.637,76.057,272.343,74.952z" fill="#ffff66"/>
	<path d="M353.606,152.293c0.298-1.186,0.114-2.441-0.514-3.491c-11.442-19.141-26.03-35.993-43.358-50.086   c-0.949-0.771-2.16-1.132-3.381-1.01c-1.216,0.126-2.333,0.729-3.104,1.677l-34.909,42.921c-0.771,0.949-1.135,2.165-1.009,3.381   c0.125,1.216,0.728,2.333,1.677,3.105c11.465,9.323,21.115,20.469,28.682,33.129c0.864,1.444,2.393,2.246,3.962,2.246   c0.805,0,1.62-0.211,2.361-0.654l47.488-28.386C352.55,154.498,353.307,153.479,353.606,152.293z" fill="#ffff66"/>
	<path d="M371.237,189.291c-0.762-2.43-3.35-3.784-5.778-3.021l-52.794,16.542c-2.43,0.761-3.782,3.348-3.021,5.777   c3.789,12.096,5.71,24.73,5.71,37.552c0,1.888-0.047,3.814-0.143,5.887c-0.057,1.221,0.374,2.416,1.198,3.319   c0.824,0.904,1.973,1.443,3.194,1.499l55.266,2.553c0.073,0.003,0.145,0.005,0.217,0.005c2.448,0,4.487-1.926,4.602-4.397   c0.142-3.076,0.212-5.976,0.212-8.867C379.9,226.764,376.986,207.637,371.237,189.291z" fill="#ffff66"/>
	<path d="M189.787,236.354c-0.795,0-1.586,0.026-2.374,0.068l-74.894-44.188c-1.833-1.083-4.16-0.812-5.696,0.661   c-1.537,1.472-1.906,3.786-0.904,5.662l40.855,76.573c-0.15,1.475-0.23,2.964-0.23,4.466c0,11.551,4.498,22.41,12.665,30.577   c8.168,8.168,19.027,12.666,30.578,12.666c11.551,0,22.41-4.499,30.577-12.666c8.168-8.167,12.665-19.026,12.665-30.577   c0-11.551-4.498-22.41-12.665-30.577C212.197,240.852,201.337,236.354,189.787,236.354z" fill="#ffff66"/>
</g>
<g>
</g>
<g>
</g>
<g>
</g>
<g>
</g>
<g>
</g>
<g>
</g>
<g>
</g>
<g>
</g>
<g>
</g>
<g>
</g>
<g>
</g>
<g>
</g>
<g>
</g>
<g>
</g>
<g>
</g>
</svg>
