<?xml version="1.0" encoding="UTF-8"?>
<!-- Generator: Adobe Illustrator 18.0.0, SVG Export Plug-In . SVG Version: 6.00 Build 0)  -->
<!DOCTYPE svg PUBLIC "-//W3C//DTD SVG 1.1//EN" "http://www.w3.org/Graphics/SVG/1.1/DTD/svg11.dtd">
<svg xmlns="http://www.w3.org/2000/svg" xmlns:xlink="http://www.w3.org/1999/xlink" version="1.1" id="Capa_1" x="0px" y="0px" viewBox="0 0 331.952 331.952" style="enable-background:new 0 0 331.952 331.952;" xml:space="preserve">
<path d="M283.338,48.614C251.988,17.265,210.311,0,165.977,0C121.641,0,79.963,17.265,48.614,48.614  C17.266,79.963,0,121.641,0,165.976c0,44.335,17.266,86.013,48.614,117.362c31.349,31.349,73.026,48.614,117.362,48.614  c44.335,0,86.012-17.266,117.361-48.614c31.349-31.349,48.614-73.027,48.614-117.362C331.952,121.641,314.686,79.963,283.338,48.614  z M165.977,21.007c38.715,0,75.12,15.079,102.506,42.459l0.098,0.099l-26.415,26.424l-0.099-0.1  c-20.33-20.326-47.352-31.519-76.09-31.519c-6.202,0-12.411,0.525-18.454,1.561l-6.314-36.825  C149.331,21.714,157.664,21.007,165.977,21.007z M54.651,258.849c-21.696-25.928-33.644-58.911-33.644-92.873  c-0.001-12.741,1.646-25.378,4.894-37.56l36.102,9.627c-2.411,9.042-3.633,18.439-3.633,27.932c0,25.578,8.623,49.402,24.936,68.897  L54.651,258.849z M78.92,165.976c0-48.002,39.055-87.056,87.057-87.056c48.001,0,87.056,39.054,87.056,87.056  c0,48.001-39.055,87.057-87.056,87.057C117.975,253.033,78.92,213.977,78.92,165.976z M268.486,268.483  c-18.111,18.106-40.623,31.11-65.105,37.609l-9.586-36.112c18.124-4.811,34.817-14.464,48.272-27.916  c11.19-11.192,19.588-24.283,24.958-38.905l35.072,12.88C294.846,235.783,283.537,253.428,268.486,268.483z" fill="#ffff66"/>
<g>
</g>
<g>
</g>
<g>
</g>
<g>
</g>
<g>
</g>
<g>
</g>
<g>
</g>
<g>
</g>
<g>
</g>
<g>
</g>
<g>
</g>
<g>
</g>
<g>
</g>
<g>
</g>
<g>
</g>
</svg>
