<?xml version="1.0" encoding="UTF-8"?>
<!-- Generator: Adobe Illustrator 18.0.0, SVG Export Plug-In . SVG Version: 6.00 Build 0)  -->
<!DOCTYPE svg PUBLIC "-//W3C//DTD SVG 1.1//EN" "http://www.w3.org/Graphics/SVG/1.1/DTD/svg11.dtd">
<svg xmlns="http://www.w3.org/2000/svg" xmlns:xlink="http://www.w3.org/1999/xlink" version="1.1" id="Capa_1" x="0px" y="0px" viewBox="0 0 341.173 341.173" style="enable-background:new 0 0 341.173 341.173;" xml:space="preserve">
<path d="M170.587,0C76.375,0,0,76.374,0,170.586c0,94.213,76.374,170.587,170.587,170.587s170.586-76.374,170.586-170.587  C341.173,76.374,264.799,0,170.587,0z M191.334,251.218c0,11.458-9.289,20.747-20.747,20.747c-11.459,0-20.747-9.288-20.747-20.747  V174.65c-5.612-3.713-9.315-10.083-9.315-17.316c0-11.458,9.289-20.747,20.747-20.747h9.315c11.458,0,20.747,9.289,20.747,20.747  V251.218z M170.587,124.993c-15.278,0-27.663-12.384-27.663-27.662c0-15.278,12.385-27.663,27.663-27.663  c15.276,0,27.663,12.385,27.663,27.663C198.25,112.609,185.863,124.993,170.587,124.993z" fill="#ffff66"/>
<g>
</g>
<g>
</g>
<g>
</g>
<g>
</g>
<g>
</g>
<g>
</g>
<g>
</g>
<g>
</g>
<g>
</g>
<g>
</g>
<g>
</g>
<g>
</g>
<g>
</g>
<g>
</g>
<g>
</g>
</svg>
