<?xml version="1.0" encoding="UTF-8"?>
<!-- Generator: Adobe Illustrator 18.0.0, SVG Export Plug-In . SVG Version: 6.00 Build 0)  -->
<!DOCTYPE svg PUBLIC "-//W3C//DTD SVG 1.1//EN" "http://www.w3.org/Graphics/SVG/1.1/DTD/svg11.dtd">
<svg xmlns="http://www.w3.org/2000/svg" xmlns:xlink="http://www.w3.org/1999/xlink" version="1.1" id="Capa_1" x="0px" y="0px" viewBox="0 0 282.727 282.727" style="enable-background:new 0 0 282.727 282.727;" xml:space="preserve">
<path d="M255.965,26.781C238.692,9.511,215.73,0,191.307,0c-24.424,0-47.387,9.511-64.656,26.781  C109.378,44.052,99.866,67.015,99.866,91.44c0,12.557,2.532,24.72,7.322,35.929L6.44,228.117c-1.83,1.828-2.957,4.242-3.186,6.816  l-3.189,35.789c-0.291,3.254,0.875,6.467,3.184,8.775c2.309,2.309,5.521,3.475,8.775,3.185l35.791-3.188  c2.574-0.23,4.986-1.357,6.816-3.188l10.852-10.853c-0.074-0.301-0.127-0.61-0.149-0.929l-1.779-25.936  c-0.105-1.537,0.459-3.045,1.549-4.134c1.089-1.089,2.586-1.645,4.133-1.549l25.938,1.777c0.319,0.021,0.629,0.075,0.93,0.15  l8.518-8.518c-0.075-0.301-0.128-0.611-0.15-0.931l-1.779-25.936c-0.105-1.537,0.46-3.045,1.549-4.134  c1.089-1.09,2.594-1.651,4.134-1.549l25.938,1.779c0.318,0.021,0.629,0.075,0.93,0.15l20.139-20.14  c11.209,4.79,23.373,7.321,35.928,7.321c24.425,0,47.387-9.511,64.658-26.78C291.619,120.447,291.619,62.436,255.965,26.781z   M217.932,118.066c-7.111,7.11-16.566,11.026-26.624,11.026c-10.057,0-19.512-3.916-26.623-11.028  c-7.112-7.111-11.029-16.567-11.029-26.624c0-10.058,3.917-19.513,11.029-26.624c7.109-7.111,16.565-11.027,26.622-11.027  c10.058,0,19.513,3.916,26.624,11.027C232.612,79.497,232.612,103.386,217.932,118.066z" fill="#ffff66"/>
<g>
</g>
<g>
</g>
<g>
</g>
<g>
</g>
<g>
</g>
<g>
</g>
<g>
</g>
<g>
</g>
<g>
</g>
<g>
</g>
<g>
</g>
<g>
</g>
<g>
</g>
<g>
</g>
<g>
</g>
</svg>
