<?xml version="1.0" encoding="UTF-8"?>
<svg xmlns="http://www.w3.org/2000/svg" viewBox="0 0 781 1242.1325"><path d="M390 300q64 0 109 45t46 110q0 11-7 18t-19 8-19-8-7-18q0-43-30-73t-73-30q-25 0-25-26t25-26zm0 860q-21 0-36-16t-15-37H235q-21 0-37-15t-15-37V898q0-31-23-76T70 680Q0 583 0 456q0-161 114-276T390 66t276 114 115 276q0 121-71 224-67 96-89 140t-22 78v157q0 21-15 37t-36 15H443q0 22-16 37t-37 16zm105-156v-53H286v53h209zm130-383q53-76 53-165 0-118-85-202t-203-84q-117 0-202 84t-84 202q0 87 52 164 107 155 124 227h59V742q0-21 15-36t36-15 37 15 16 36v105h57q16-71 125-226z" fill="#ffff66"/></svg>
