<?xml version="1.0" encoding="UTF-8"?>
<!-- Generator: Adobe Illustrator 18.0.0, SVG Export Plug-In . SVG Version: 6.00 Build 0)  -->
<!DOCTYPE svg PUBLIC "-//W3C//DTD SVG 1.1//EN" "http://www.w3.org/Graphics/SVG/1.1/DTD/svg11.dtd">
<svg xmlns="http://www.w3.org/2000/svg" xmlns:xlink="http://www.w3.org/1999/xlink" version="1.1" id="Capa_1" x="0px" y="0px" viewBox="0 0 343.633 343.633" style="enable-background:new 0 0 343.633 343.633;" xml:space="preserve">
<path d="M206.518,154.88h23.248c43.156,0,78.266-35.111,78.266-78.267V40.958c0-19.212-15.573-34.786-34.785-34.786  s-34.785,15.574-34.785,34.786v35.654c0,4.795-3.901,8.696-8.695,8.696h-23.248V34.786C206.518,15.574,190.944,0,171.732,0  s-34.785,15.574-34.785,34.786v103.003h-23.078c-4.796,0-8.697-3.901-8.697-8.697V93.437c0-19.211-15.573-34.786-34.785-34.786  S35.602,74.226,35.602,93.437v35.655c0,43.157,35.11,78.268,78.268,78.268h23.078v101.487c0,19.211,15.573,34.786,34.785,34.786  s34.785-15.574,34.785-34.786v-38.423h23.248c43.156,0,78.266-35.11,78.266-78.267c0-19.211-15.573-34.786-34.785-34.786  s-34.785,15.574-34.785,34.786c0,4.795-3.901,8.696-8.695,8.696h-23.248V154.88z" fill="#ffff66"/>
<g>
</g>
<g>
</g>
<g>
</g>
<g>
</g>
<g>
</g>
<g>
</g>
<g>
</g>
<g>
</g>
<g>
</g>
<g>
</g>
<g>
</g>
<g>
</g>
<g>
</g>
<g>
</g>
<g>
</g>
</svg>
