<?xml version="1.0" encoding="UTF-8"?>
<!-- Generator: Adobe Illustrator 18.0.0, SVG Export Plug-In . SVG Version: 6.00 Build 0)  -->
<!DOCTYPE svg PUBLIC "-//W3C//DTD SVG 1.1//EN" "http://www.w3.org/Graphics/SVG/1.1/DTD/svg11.dtd">
<svg xmlns="http://www.w3.org/2000/svg" xmlns:xlink="http://www.w3.org/1999/xlink" version="1.1" id="Capa_1" x="0px" y="0px" viewBox="0 0 363.859 363.859" style="enable-background:new 0 0 363.859 363.859;" xml:space="preserve">
<path style="fill-rule:evenodd;clip-rule:evenodd;" d="M334.351,2.939c-4.582-3.134-10.412-3.808-15.585-1.798  c-28.538,11.084-56.762,16.703-83.887,16.703c-28.389,0-45.64-6.366-46.659-6.753c-4.142-1.732-8.437-1.732-12.579-0.002  c-1.009,0.384-18.27,6.754-46.664,6.755c-27.122,0.002-55.345-5.618-83.885-16.703C39.92-0.867,34.089-0.195,29.508,2.939  c-4.58,3.134-7.318,8.326-7.318,13.876c0,64.308,7.761,122.302,23.066,172.371c12.416,40.616,29.811,76.191,51.7,105.737  c38.182,51.537,77.231,67.152,78.876,67.791c1.961,0.764,4.028,1.145,6.097,1.145c2.068,0,4.136-0.381,6.097-1.145  c1.644-0.639,40.694-16.254,78.876-67.791c21.89-29.546,39.284-65.121,51.7-105.737c15.306-50.069,23.066-108.063,23.066-172.371  C341.669,11.265,338.93,6.072,334.351,2.939z M285.504,181.93H181.929V328.3c-0.017,0.01-0.036,0.022-0.053,0.03  c-18.233-10.022-72.604-47.208-103.657-146.4h103.71V44.406c9.097,2.728,27.562,7.067,52.95,7.067  c23.807,0,48.198-3.693,72.782-11.003C305.792,98.253,297.139,144.78,285.504,181.93z" fill="#ffff66"/>
<g>
</g>
<g>
</g>
<g>
</g>
<g>
</g>
<g>
</g>
<g>
</g>
<g>
</g>
<g>
</g>
<g>
</g>
<g>
</g>
<g>
</g>
<g>
</g>
<g>
</g>
<g>
</g>
<g>
</g>
</svg>
