<?xml version="1.0" encoding="UTF-8"?>
<!-- Generator: Adobe Illustrator 18.0.0, SVG Export Plug-In . SVG Version: 6.00 Build 0)  -->
<!DOCTYPE svg PUBLIC "-//W3C//DTD SVG 1.1//EN" "http://www.w3.org/Graphics/SVG/1.1/DTD/svg11.dtd">
<svg xmlns="http://www.w3.org/2000/svg" xmlns:xlink="http://www.w3.org/1999/xlink" version="1.1" id="Capa_1" x="0px" y="0px" viewBox="0 0 295.022 295.022" style="enable-background:new 0 0 295.022 295.022;" xml:space="preserve">
<path d="M267.327,38.396c-17.881-17.882-41.655-27.729-66.942-27.729c-19.059,0-37.34,5.631-52.852,16.092  c-15.512-10.459-33.795-16.092-52.851-16.092c-25.288,0-49.063,9.848-66.942,27.729C9.852,56.284-0.001,80.067,0,105.366  c0,25.298,9.852,49.081,27.74,66.969l104.021,104.023c1.098,1.096,2.239,2.181,3.391,3.225c3.516,3.182,7.947,4.772,12.381,4.772  c4.445,0,8.892-1.6,12.408-4.798c1.213-1.104,2.316-2.152,3.378-3.214l104.008-104.008  C304.254,135.408,304.254,75.323,267.327,38.396z M241.247,146.255l-84.234,84.234V66.728c0,0,2.28-2.066,3.302-3.048  c10.819-10.401,25.05-16.13,40.07-16.13c15.435,0,29.947,6.011,40.862,16.926C263.793,87.023,263.793,123.709,241.247,146.255z" fill="#ffff66"/>
<g>
</g>
<g>
</g>
<g>
</g>
<g>
</g>
<g>
</g>
<g>
</g>
<g>
</g>
<g>
</g>
<g>
</g>
<g>
</g>
<g>
</g>
<g>
</g>
<g>
</g>
<g>
</g>
<g>
</g>
</svg>
