<?xml version="1.0" encoding="UTF-8"?>
<!-- Generator: Adobe Illustrator 18.0.0, SVG Export Plug-In . SVG Version: 6.00 Build 0)  -->
<!DOCTYPE svg PUBLIC "-//W3C//DTD SVG 1.1//EN" "http://www.w3.org/Graphics/SVG/1.1/DTD/svg11.dtd">
<svg xmlns="http://www.w3.org/2000/svg" xmlns:xlink="http://www.w3.org/1999/xlink" version="1.1" id="Capa_1" x="0px" y="0px" viewBox="0 0 295.024 295.024" style="enable-background:new 0 0 295.024 295.024;" xml:space="preserve">
<path d="M267.284,38.397c-17.881-17.882-41.655-27.729-66.942-27.729c-19.058,0-37.34,5.631-52.852,16.092  c-15.512-10.461-33.795-16.092-52.852-16.092c-25.288,0-49.061,9.848-66.943,27.729c-36.926,36.926-36.927,97.011,0,133.94  l104.002,104.001c1.059,1.06,2.168,2.115,3.393,3.227c3.516,3.194,7.958,4.792,12.4,4.792c4.433,0,8.866-1.591,12.38-4.772  c1.185-1.073,2.333-2.166,3.405-3.239l104.009-104.008c17.889-17.888,27.74-41.672,27.74-66.97  C295.024,80.069,285.172,56.285,267.284,38.397z" fill="#ffff66"/>
<g>
</g>
<g>
</g>
<g>
</g>
<g>
</g>
<g>
</g>
<g>
</g>
<g>
</g>
<g>
</g>
<g>
</g>
<g>
</g>
<g>
</g>
<g>
</g>
<g>
</g>
<g>
</g>
<g>
</g>
</svg>
