<?xml version="1.0" encoding="UTF-8"?>
<!-- Generator: Adobe Illustrator 18.0.0, SVG Export Plug-In . SVG Version: 6.00 Build 0)  -->
<!DOCTYPE svg PUBLIC "-//W3C//DTD SVG 1.1//EN" "http://www.w3.org/Graphics/SVG/1.1/DTD/svg11.dtd">
<svg xmlns="http://www.w3.org/2000/svg" xmlns:xlink="http://www.w3.org/1999/xlink" version="1.1" id="Capa_1" x="0px" y="0px" viewBox="0 0 340.08 340.08" style="enable-background:new 0 0 340.08 340.08;" xml:space="preserve">
<g>
	<path d="M170.04,0C76.28,0,0,76.279,0,170.04c0,93.76,76.28,170.04,170.04,170.04c93.76,0,170.04-76.28,170.04-170.04   C340.08,76.279,263.8,0,170.04,0z M170.04,313.51c-79.11,0-143.471-64.361-143.471-143.471c0-79.11,64.361-143.47,143.471-143.47   c79.11,0,143.47,64.36,143.47,143.47C313.51,249.149,249.15,313.51,170.04,313.51z" fill="#ffff66"/>
	<path d="M267.431,166.031l-61.073-14.813l18.466-30.294c0.991-1.625,0.741-3.718-0.605-5.064c-1.346-1.345-3.438-1.596-5.064-0.605   l-30.292,18.467l-14.812-61.075c-0.449-1.85-2.105-3.153-4.009-3.153c-1.904,0-3.56,1.303-4.009,3.153l-14.813,61.074   l-30.292-18.466c-1.624-0.99-3.717-0.74-5.064,0.605c-1.346,1.346-1.596,3.438-0.605,5.064l18.466,30.294l-61.074,14.813   c-1.85,0.449-3.153,2.105-3.153,4.009c0,1.904,1.303,3.56,3.153,4.009l61.074,14.813l-18.466,30.294   c-0.991,1.626-0.741,3.718,0.605,5.064c0.795,0.796,1.852,1.208,2.919,1.208c0.738,0,1.481-0.197,2.146-0.602l30.292-18.466   l14.813,61.075c0.449,1.85,2.105,3.153,4.009,3.153c1.904,0,3.56-1.303,4.009-3.153l14.812-61.075l30.292,18.466   c0.665,0.405,1.408,0.602,2.146,0.602c1.066,0,2.123-0.412,2.919-1.208c1.346-1.346,1.596-3.438,0.605-5.064l-18.465-30.294   l61.074-14.813c1.85-0.449,3.153-2.105,3.153-4.009C270.583,168.136,269.281,166.48,267.431,166.031z" fill="#ffff66"/>
	<path d="M230.806,64.788c0.454,0.263,0.951,0.388,1.441,0.388c0.998,0,1.969-0.518,2.503-1.444l6.448-11.167   c0.798-1.381,0.325-3.147-1.057-3.944c-1.38-0.798-3.147-0.324-3.944,1.057l-6.448,11.167   C228.952,62.224,229.425,63.99,230.806,64.788z" fill="#ffff66"/>
	<path d="M277.795,110.718c0.49,0,0.986-0.125,1.441-0.388l11.166-6.447c1.381-0.797,1.854-2.563,1.057-3.944   c-0.797-1.381-2.563-1.855-3.944-1.057l-11.166,6.447c-1.381,0.797-1.854,2.563-1.057,3.944   C275.826,110.2,276.797,110.718,277.795,110.718z" fill="#ffff66"/>
	<path d="M307.355,167.152h-12.894c-1.595,0-2.888,1.293-2.888,2.888c0,1.595,1.293,2.888,2.888,2.888h12.894   c1.595,0,2.888-1.293,2.888-2.888C310.243,168.445,308.95,167.152,307.355,167.152z" fill="#ffff66"/>
	<path d="M290.402,236.197l-11.167-6.448c-1.381-0.798-3.147-0.324-3.944,1.057c-0.798,1.381-0.325,3.147,1.057,3.944l11.167,6.448   c0.454,0.263,0.951,0.388,1.441,0.388c0.998,0,1.969-0.518,2.503-1.444C292.256,238.761,291.783,236.995,290.402,236.197z" fill="#ffff66"/>
	<path d="M234.749,276.348c-0.797-1.381-2.562-1.855-3.945-1.056c-1.381,0.798-1.854,2.564-1.056,3.945l6.449,11.166   c0.535,0.926,1.505,1.444,2.503,1.444c0.49,0,0.986-0.125,1.441-0.388c1.381-0.798,1.854-2.564,1.056-3.945L234.749,276.348z" fill="#ffff66"/>
	<path d="M170.04,291.571c-1.595,0-2.888,1.293-2.888,2.888v12.896c0,1.595,1.293,2.888,2.888,2.888   c1.595,0,2.888-1.293,2.888-2.888v-12.896C172.928,292.864,171.635,291.571,170.04,291.571z" fill="#ffff66"/>
	<path d="M109.273,275.292c-1.381-0.798-3.147-0.324-3.944,1.057l-6.447,11.166c-0.798,1.381-0.325,3.147,1.057,3.944   c0.455,0.263,0.951,0.388,1.441,0.388c0.998,0,1.969-0.518,2.503-1.444l6.447-11.166   C111.128,277.855,110.655,276.089,109.273,275.292z" fill="#ffff66"/>
	<path d="M60.845,229.75l-11.167,6.448c-1.381,0.797-1.854,2.563-1.057,3.944c0.535,0.926,1.505,1.444,2.503,1.444   c0.49,0,0.986-0.125,1.441-0.388l11.167-6.448c1.381-0.797,1.854-2.563,1.057-3.944C63.992,229.425,62.226,228.951,60.845,229.75z" fill="#ffff66"/>
	<path d="M45.619,167.152H32.724c-1.595,0-2.888,1.293-2.888,2.888c0,1.595,1.293,2.888,2.888,2.888h12.895   c1.595,0,2.888-1.293,2.888-2.888C48.506,168.445,47.213,167.152,45.619,167.152z" fill="#ffff66"/>
	<path d="M63.732,105.329l-11.167-6.447c-1.382-0.796-3.147-0.324-3.945,1.057c-0.797,1.381-0.324,3.147,1.057,3.945l11.167,6.447   c0.455,0.262,0.951,0.387,1.441,0.387c0.998,0,1.969-0.518,2.504-1.444C65.587,107.892,65.113,106.126,63.732,105.329z" fill="#ffff66"/>
	<path d="M105.329,63.731c0.535,0.926,1.505,1.444,2.503,1.444c0.49,0,0.986-0.125,1.441-0.388c1.381-0.797,1.854-2.563,1.057-3.944   l-6.447-11.167c-0.797-1.381-2.563-1.855-3.944-1.057c-1.381,0.797-1.854,2.563-1.057,3.944L105.329,63.731z" fill="#ffff66"/>
	<path d="M170.04,48.506c1.595,0,2.888-1.293,2.888-2.888V32.724c0-1.595-1.293-2.888-2.888-2.888c-1.595,0-2.888,1.293-2.888,2.888   v12.894C167.152,47.213,168.445,48.506,170.04,48.506z" fill="#ffff66"/>
</g>
<g>
</g>
<g>
</g>
<g>
</g>
<g>
</g>
<g>
</g>
<g>
</g>
<g>
</g>
<g>
</g>
<g>
</g>
<g>
</g>
<g>
</g>
<g>
</g>
<g>
</g>
<g>
</g>
<g>
</g>
</svg>
