<?xml version="1.0" encoding="UTF-8"?>
<svg xmlns="http://www.w3.org/2000/svg" viewBox="0 0 1024 1234"><path d="M791 489q149 54 202 105 14 14 22.5 38t8.5 55-17 67.5-51 70.5q-45 44-100.5 62.5t-96 12.5-53.5-28q-25-42-72-114t-84-131q10 92 18 203t8 135q0 27-18.5 45.5t-45 18.5-45.5-18.5-19-45.5q0-25 8-140.5T475 617q-38 58-86 128.5T317 856q-11 16-36.5 28T222 900t-73.5-9.5-75-45.5-53-73-20-77 6-65T28 588q31-29 99.5-60.5T279 470q-43-15-96.5-30t-91-27.5T22 381Q6 371 2.5 340T8 270t33-84 58-80.5 77.5-60 81-34 68-6.5T368 22q83 102 142 291 46-132 136-286 9-17 44-20t79 6.5 93.5 34T947 106q34 34 53.5 77t22 80-4.5 66.5-21 43.5q-57 56-206 116z" fill="#ffff66"/></svg>
