<?xml version="1.0" encoding="UTF-8"?>
<svg xmlns="http://www.w3.org/2000/svg" viewBox="0 0 1037.5605 1234"><path d="M845.56 1029h-704q-53 0-90.5-37.5T13.56 901V197q0-53 37.5-90.5t90.5-37.5h704q53 0 90.5 37.5t37.5 90.5v704q0 53-37.5 90.5t-90.5 37.5zm-672-896q-40 0-68 28t-28 68 28 68 68 28 68-28 28-68-28-68-68-28zm0 640q-40 0-68 28t-28 68 28 68 68 28 68-28 28-68-28-68-68-28zm640-640q-40 0-68 28t-28 68 28 68 68 28 68-28 28-68-28-68-68-28zm0 640q-40 0-68 28t-28 68 28 68 68 28 68-28 28-68-28-68-68-28z" fill="#ffff66"/></svg>
