<?xml version="1.0" encoding="UTF-8"?>
<svg xmlns="http://www.w3.org/2000/svg" viewBox="0 0 1024 1234"><path d="M896 773v64q0 84-50 138t-142 54H320q-92 0-142-54t-50-138v-64q-48 0-88-40T0 645V517q0-104 40.5-199t109-163.5T313 45.5 512 5t199 40.5 163.5 109 109 163.5 40.5 199v128q0 48-40 88t-88 40zm-704 64q0 53 37.5 90.5T320 965h384q53 0 90.5-37.5T832 837v-70h-2q-7-22-51.5-40T704 709h-64v96q0 13-9.5 22.5T608 837t-22.5-9.5T576 805v-96H448v96q0 13-9.5 22.5T416 837t-22.5-9.5T384 805v-96h-64q-30 0-75 18t-51 40h-2v70zm-45-574Q64 381 64 517v42q30 22 64 22 53 0 90.5-47T256 421q0-60-31.5-104.5T147 263zM446 75Q314 95 213 188q17 34 45.5 53.5T320 261q53 0 90.5-47T448 101q0-11-2-26zM320 485q0 66 56 113t136 47 136-47 56-113-56-113-136-47-136 47-56 113zM578 75q-2 15-2 26 0 66 37.5 113t90.5 47q33 0 61.5-19.5T811 188Q710 95 578 75zm382 442q0-136-83-254-46 9-77.5 53.5T768 421q0 66 37.5 113t90.5 47q33 0 64-22v-42z" fill="#ffff66"/></svg>
