<?xml version="1.0" encoding="UTF-8"?>
<svg xmlns="http://www.w3.org/2000/svg" viewBox="0 0 1000.0031 1242.1325"><path d="M340 568l160-116 160 116-61 188H401zm160-455q102 0 194 40t160 106 106 160 40 194-40 194-106 160-160 106-194 40-194-40-160-106T40 807 0 613t40-194 106-160 160-106 194-40zm345 753q84-113 84-253v-2l-57 50-134-125 35-180 75 6q-84-115-217-157l29 69-160 89-160-89 29-69q-133 42-217 157l76-6 34 180-134 125-57-50v2q0 140 84 253l16-73 182 22 78 166-65 39q65 22 134 22t134-22l-65-39 78-166 182-22z" fill="#ffff66"/></svg>
