<?xml version="1.0" encoding="UTF-8"?>
<svg xmlns="http://www.w3.org/2000/svg" viewBox="0 0 1053.4169 1234"><path d="M972.417 430l-94 94q-31-56-81-100V5h128q27 0 45.5 19t18.5 45v320q0 24-17 41zm-431 599q-87 0-160.5-43t-116.5-116.5-43-160.5 43-160.5 116.5-116.5 160.5-43 160.5 43 116.5 116.5 43 160.5-43 160.5-116.5 116.5-160.5 43zm81-418l-81-168-81 168-188 23 138 127-35 182 166-90 166 90-35-182 138-127zm47-606h64v372q-31-17-64-29V5zm-320 0h64v343q-34 12-64 29V5zm-145 519l-94-94q-17-17-17-41V69q0-26 19-45t45-19h128v419q-50 44-81 100z" fill="#ffff66"/></svg>
