<?xml version="1.0" encoding="UTF-8"?>
<!-- Generator: Adobe Illustrator 18.0.0, SVG Export Plug-In . SVG Version: 6.00 Build 0)  -->
<!DOCTYPE svg PUBLIC "-//W3C//DTD SVG 1.1//EN" "http://www.w3.org/Graphics/SVG/1.1/DTD/svg11.dtd">
<svg xmlns="http://www.w3.org/2000/svg" xmlns:xlink="http://www.w3.org/1999/xlink" version="1.1" id="Capa_1" x="0px" y="0px" viewBox="0 0 359.763 359.763" style="enable-background:new 0 0 359.763 359.763;" xml:space="preserve">
<path d="M303.194,253.821c0,0-5.242-118.638-79.402-153.145c5.441-8.289,10.685-16.711,15.652-25.288  c6.538-11.292,12.652-23.006,16.988-35.341c3.744-10.648,3.423-28.121-6.714-35.611c-8.804-6.506-21.694-4.596-31.511-2.182  c-8.061,1.982-15.764,5.227-23.424,8.377c-5.354,2.204-10.787,4.314-16.338,5.969c-5.934,1.768-10.676,3.225-18.257-0.955  c-1.974-1.09-3.939-2.184-5.966-3.174c-6.166-3.015-12.313-4.893-19.234-4.867c-12.582,0.043-25.4,6.828-31.457,18.013  c-5.336,9.854-4.131,19.292,0.17,28.984c6.211,14.001,17.615,26.319,27.479,37.815c2.108,2.456,4.24,4.893,6.395,7.313  c-76.158,33.224-81.501,154.091-81.501,154.091S46.19,359.763,179.635,359.763C320.358,359.763,303.194,253.821,303.194,253.821z   M218.58,267.968c-1.585,4.333-3.885,8.284-6.849,11.739c-2.959,3.459-6.566,6.393-10.747,8.709  c-2.424,1.357-5.031,2.451-7.799,3.294v6.939c0,6.051-4.908,10.963-10.966,10.963h-1.179c-6.059,0-10.968-4.912-10.968-10.963v-5.76  c-2.051-0.395-4.046-0.93-5.964-1.61c-4.039-1.415-7.773-3.374-11.103-5.814c-3.327-2.447-6.274-5.357-8.738-8.654  c-1.761-2.356-3.271-4.919-4.486-7.613c-2.128-4.733-0.648-10.303,3.536-13.367l1.816-1.314c2.529-1.846,5.723-2.525,8.779-1.856  c3.063,0.659,5.69,2.595,7.229,5.319c0.588,1.045,1.24,2.034,1.961,2.931c1.324,1.68,2.838,3.124,4.502,4.275  c1.654,1.149,3.48,2.06,5.43,2.692c1.898,0.611,3.889,0.928,5.92,0.928c2.686,0,5.085-0.381,7.115-1.124  c1.896-0.7,3.486-1.643,4.721-2.82c1.186-1.129,2.115-2.546,2.76-4.216c0.717-1.825,1.07-3.94,1.07-6.304  c0-2.352-0.396-4.248-1.199-5.63c-0.949-1.662-2.244-3.115-3.83-4.318c-1.93-1.466-4.168-2.775-6.672-3.898  c-2.986-1.343-6.053-2.673-9.119-3.968c-3.303-1.391-6.598-2.918-9.772-4.546c-3.603-1.844-6.886-4.127-9.748-6.788  c-3.059-2.849-5.546-6.3-7.394-10.257c-1.898-4.084-2.859-8.925-2.859-14.4c0-4.436,0.794-8.697,2.369-12.656  c1.566-3.94,3.811-7.513,6.666-10.609c2.848-3.083,6.305-5.663,10.291-7.673c2.115-1.06,4.361-1.933,6.72-2.612v-5.905  c0-6.051,4.909-10.962,10.968-10.962h1.179c6.058,0,10.966,4.911,10.966,10.962v5.499c4.094,0.983,7.875,2.505,11.3,4.571  c4.13,2.48,7.697,5.614,10.628,9.319c3.241,4.12,3.129,9.954-0.283,13.931l-1.758,2.055c-2.024,2.351-4.943,3.746-8.053,3.819  c-3.113,0.073-6.088-1.161-8.223-3.416c-0.461-0.481-0.936-0.94-1.422-1.376c-1.257-1.133-2.609-2.12-4.019-2.929  c-1.332-0.767-2.765-1.385-4.237-1.814c-1.371-0.399-2.771-0.604-4.172-0.604c-2.291,0-4.322,0.307-6.02,0.91  c-1.585,0.555-2.907,1.3-3.923,2.202c-0.977,0.874-1.696,1.843-2.207,2.961c-0.494,1.091-0.738,2.255-0.738,3.554  c0,2.023,0.363,3.632,1.072,4.769c0.925,1.495,2.197,2.813,3.787,3.926c1.975,1.391,4.28,2.656,6.857,3.761  c3.033,1.308,6.134,2.642,9.295,3.994c3.354,1.444,6.689,3.051,9.914,4.794c3.639,1.952,6.953,4.405,9.84,7.269  c3.057,3.035,5.527,6.695,7.346,10.898c1.84,4.257,2.777,9.36,2.777,15.148C220.948,259.064,220.146,263.66,218.58,267.968z" fill="#ffff66"/>
<g>
</g>
<g>
</g>
<g>
</g>
<g>
</g>
<g>
</g>
<g>
</g>
<g>
</g>
<g>
</g>
<g>
</g>
<g>
</g>
<g>
</g>
<g>
</g>
<g>
</g>
<g>
</g>
<g>
</g>
</svg>
